<svg width="63" height="62" viewBox="0 0 63 62" fill="none" xmlns="http://www.w3.org/2000/svg">
<g id="ProjectNinja 9">
<g id="Group">
<g id="Group_2">
<path id="XMLID_1_" d="M24.9397 21.8518L9.64355 6.55565L6.2864 9.9128L21.5826 25.209L24.9397 21.8518Z" fill="white"/>
<path id="XMLID_3_" d="M56.3865 53.2334L41.0903 37.9373L37.7332 41.2944L53.0293 56.5906L56.3865 53.2334Z" fill="white"/>
<path id="XMLID_4_" d="M40.9446 25.191L56.2407 9.89481L52.8836 6.53765L37.5874 21.8338L40.9446 25.191Z" fill="white"/>
<path id="XMLID_5_" d="M9.74876 56.4913L25.0449 41.1952L21.6878 37.838L6.39161 53.1342L9.74876 56.4913Z" fill="white"/>
<path id="XMLID_6_" d="M30.0914 36.4553L26.2896 32.6535L22.4877 36.4553L26.2896 40.2571L30.0914 36.4553Z" fill="white"/>
<path id="XMLID_8_" d="M40.0286 36.3009L26.3999 22.6722L22.6203 26.4518L36.249 40.0805L40.0286 36.3009Z" fill="white"/>
<path id="XMLID_7_" d="M40.0181 26.478L36.2163 22.6762L32.4145 26.478L36.2163 30.2798L40.0181 26.478Z" fill="white"/>
</g>
</g>
</g>
</svg>
