<svg width="24" height="24" viewBox="0 0 24 24" fill="none" xmlns="http://www.w3.org/2000/svg">
<g id="pencil (1) 1">
<path id="Vector" d="M16.5291 5.77858L3.77297 18.5661L3 20.4373L4.87125 19.6644L17.6588 6.90827L16.5291 5.77858ZM19.0814 3.2267L18.5287 3.77889L19.6584 4.90858L20.2111 4.35592C20.3561 4.2108 20.4376 4.01404 20.4376 3.80889C20.4376 3.60374 20.3561 3.40698 20.2111 3.26186L20.1759 3.2267C20.1041 3.15483 20.0188 3.09782 19.9249 3.05892C19.831 3.02002 19.7303 3 19.6287 3C19.527 3 19.4264 3.02002 19.3325 3.05892C19.2386 3.09782 19.1533 3.15483 19.0814 3.2267Z" stroke="#EFEFEF" stroke-width="2.0625" stroke-linecap="round" stroke-linejoin="round"/>
</g>
</svg>
